<?xml version="1.0" standalone="no"?>
<!DOCTYPE svg PUBLIC "-//W3C//DTD SVG 20010904//EN"
 "http://www.w3.org/TR/2001/REC-SVG-20010904/DTD/svg10.dtd">
<svg version="1.0" xmlns="http://www.w3.org/2000/svg"
 width="512.000000pt" height="512.000000pt" viewBox="0 0 512.000000 512.000000"
 preserveAspectRatio="xMidYMid meet">
<metadata>
Created by potrace 1.14, written by Peter Selinger 2001-2017
</metadata>
<g transform="translate(0.000000,512.000000) scale(0.100000,-0.100000)"
fill="#000000" stroke="none">
<path d="M1095 4386 c-70 -22 -119 -53 -167 -103 -94 -101 -108 -155 -108
-415 l0 -198 -217 0 c-120 0 -245 -4 -277 -10 -167 -27 -294 -158 -317 -327
-6 -42 -8 -511 -7 -1189 l3 -1119 23 -58 c31 -75 87 -146 149 -185 104 -67
-37 -62 1995 -60 l1843 3 60 28 c69 32 147 104 177 162 40 77 48 131 48 338
l0 197 218 0 c119 0 244 4 276 10 167 27 294 158 317 327 6 42 8 511 7 1189
l-3 1119 -23 58 c-31 75 -87 146 -149 185 -103 66 36 62 -1978 61 -1449 0
-1838 -3 -1870 -13z m3684 -315 c11 -11 23 -35 26 -53 3 -18 4 -522 3 -1120
l-3 -1087 -23 -23 c-22 -23 -27 -23 -250 -23 l-227 0 -5 805 -5 805 -31 65
c-58 122 -164 201 -297 221 -34 5 -678 9 -1449 9 l-1388 0 0 184 c0 170 1 185
21 210 l20 26 1795 0 c1764 0 1794 0 1813 -19z m-842 -721 c17 -6 35 -22 42
-36 8 -18 11 -325 11 -1130 l0 -1105 -25 -24 -24 -25 -1791 0 c-1777 0 -1790
0 -1810 20 -20 20 -20 33 -20 1143 0 1058 1 1125 18 1139 9 9 26 18 37 21 43
10 3532 7 3562 -3z"/>
<path d="M876 3155 c-142 -39 -256 -190 -256 -340 0 -189 166 -355 355 -355
47 0 127 20 171 43 52 27 124 105 152 165 23 49 27 70 27 147 0 77 -4 98 -27
147 -75 160 -250 240 -422 193z m170 -241 c67 -44 62 -166 -9 -202 -96 -50
-200 27 -179 135 6 30 55 80 85 86 30 6 77 -3 103 -19z"/>
<path d="M683 2164 c-31 -16 -63 -66 -63 -99 0 -34 32 -84 65 -99 30 -14 174
-16 1374 -16 1137 0 1347 2 1376 14 59 25 84 108 49 162 -38 57 43 54 -1421
54 -1204 0 -1351 -2 -1380 -16z"/>
<path d="M712 1720 c-44 -10 -70 -35 -83 -80 -14 -46 6 -100 47 -127 27 -17
67 -18 724 -18 657 0 697 1 724 18 65 43 67 143 3 189 l-32 23 -675 2 c-371 1
-690 -2 -708 -7z"/>
</g>
</svg>
